<svg xmlns="http://www.w3.org/2000/svg" viewBox="0 0 512 512">
  <rect width="512" height="512" rx="112" fill="#855400"/>
  <circle cx="386" cy="126" r="42" fill="#e29930"/>
  <path d="M112 144c0-28 22-50 50-50h92c34 0 62 28 62 62v252c0 11-13 17-22 10-22-18-51-28-82-28h-50c-28 0-50-22-50-50V144z" fill="#fff7ed"/>
  <path d="M316 156c0-34 28-62 62-62h28c28 0 50 22 50 50v196c0 28-22 50-50 50h-50c-31 0-60 10-82 28-9 7-22 1-22-10V156h64z" fill="#ffddb7"/>
  <path d="M158 170h106M158 214h106M158 258h82" stroke="#855400" stroke-width="18" stroke-linecap="round" opacity=".75"/>
  <path d="M358 170h52M358 214h52M358 258h38" stroke="#855400" stroke-width="18" stroke-linecap="round" opacity=".55"/>
</svg>